<mxfile host="app.diagrams.net" modified="2024-05-20T09:26:53.715Z" agent="Mozilla/5.0 (Windows NT 10.0; Win64; x64) AppleWebKit/537.36 (KHTML, like Gecko) Chrome/123.0.0.0 Safari/537.36 OPR/109.0.0.0" etag="9h4Lkr19UHrX_RMNA0MB" version="24.4.4" type="google">
  <diagram name="Pagina-1" id="m2cIKgUgAo31HFwd5AKQ">
    <mxGraphModel grid="1" page="1" gridSize="10" guides="1" tooltips="1" connect="1" arrows="1" fold="1" pageScale="1" pageWidth="850" pageHeight="1100" math="0" shadow="0">
      <root>
        <mxCell id="0" />
        <mxCell id="1" parent="0" />
        <mxCell id="0C1fVvSdd0bcFvSlZQpd-1" value=":System" style="shape=umlLifeline;perimeter=lifelinePerimeter;whiteSpace=wrap;html=1;container=1;dropTarget=0;collapsible=0;recursiveResize=0;outlineConnect=0;portConstraint=eastwest;newEdgeStyle={&quot;curved&quot;:0,&quot;rounded&quot;:0};" vertex="1" parent="1">
          <mxGeometry x="550" y="80" width="100" height="880" as="geometry" />
        </mxCell>
        <mxCell id="0C1fVvSdd0bcFvSlZQpd-2" value="" style="shape=umlLifeline;perimeter=lifelinePerimeter;whiteSpace=wrap;html=1;container=1;dropTarget=0;collapsible=0;recursiveResize=0;outlineConnect=0;portConstraint=eastwest;newEdgeStyle={&quot;curved&quot;:0,&quot;rounded&quot;:0};participant=umlActor;" vertex="1" parent="1">
          <mxGeometry x="150" y="75" width="20" height="885" as="geometry" />
        </mxCell>
        <mxCell id="0C1fVvSdd0bcFvSlZQpd-3" value="1.creoFoglioPreparazioni(evento)" style="html=1;verticalAlign=bottom;endArrow=block;curved=0;rounded=0;" edge="1" parent="1">
          <mxGeometry width="80" relative="1" as="geometry">
            <mxPoint x="160" y="160" as="sourcePoint" />
            <mxPoint x="599.4999999999998" y="160" as="targetPoint" />
          </mxGeometry>
        </mxCell>
        <mxCell id="0C1fVvSdd0bcFvSlZQpd-4" value="foglioPreparazioni creato" style="html=1;verticalAlign=bottom;endArrow=open;dashed=1;endSize=8;curved=0;rounded=0;" edge="1" parent="1">
          <mxGeometry x="0.0011" relative="1" as="geometry">
            <mxPoint x="599.4999999999998" y="200" as="sourcePoint" />
            <mxPoint x="160" y="200" as="targetPoint" />
            <mxPoint as="offset" />
          </mxGeometry>
        </mxCell>
        <mxCell id="0C1fVvSdd0bcFvSlZQpd-5" value="2. aggiungiPreparazione(foglioPreparazioni, nome?, descrizione?, porzioni)" style="html=1;verticalAlign=bottom;endArrow=block;curved=0;rounded=0;" edge="1" parent="1">
          <mxGeometry x="0.0011" width="80" relative="1" as="geometry">
            <mxPoint x="160" y="280" as="sourcePoint" />
            <mxPoint x="599.5" y="280" as="targetPoint" />
            <Array as="points">
              <mxPoint x="210" y="280" />
            </Array>
            <mxPoint as="offset" />
          </mxGeometry>
        </mxCell>
        <mxCell id="0C1fVvSdd0bcFvSlZQpd-6" value="preparazione creata, foglioPreparazioni aggiornato" style="html=1;verticalAlign=bottom;endArrow=open;dashed=1;endSize=8;curved=0;rounded=0;" edge="1" parent="1">
          <mxGeometry x="0.0011" relative="1" as="geometry">
            <mxPoint x="599.5" y="320" as="sourcePoint" />
            <mxPoint x="160" y="320" as="targetPoint" />
            <Array as="points">
              <mxPoint x="300" y="320" />
            </Array>
            <mxPoint as="offset" />
          </mxGeometry>
        </mxCell>
        <mxCell id="0C1fVvSdd0bcFvSlZQpd-7" value="3. ordinoPreparazioni(foglioPreparazioni, ordine?)" style="html=1;verticalAlign=bottom;endArrow=block;curved=0;rounded=0;" edge="1" parent="1" target="0C1fVvSdd0bcFvSlZQpd-1">
          <mxGeometry x="-0.0015" width="80" relative="1" as="geometry">
            <mxPoint x="160" y="400" as="sourcePoint" />
            <mxPoint x="240" y="400" as="targetPoint" />
            <mxPoint as="offset" />
          </mxGeometry>
        </mxCell>
        <mxCell id="0C1fVvSdd0bcFvSlZQpd-8" value="foglioPreparazioni aggiornato" style="html=1;verticalAlign=bottom;endArrow=open;dashed=1;endSize=8;curved=0;rounded=0;" edge="1" parent="1" source="0C1fVvSdd0bcFvSlZQpd-1">
          <mxGeometry x="-0.001" relative="1" as="geometry">
            <mxPoint x="240" y="440" as="sourcePoint" />
            <mxPoint x="160" y="440" as="targetPoint" />
            <mxPoint as="offset" />
          </mxGeometry>
        </mxCell>
        <mxCell id="0C1fVvSdd0bcFvSlZQpd-9" value="4.consultaTabellone(TabellaDeiTurni)" style="html=1;verticalAlign=bottom;endArrow=block;curved=0;rounded=0;" edge="1" parent="1" target="0C1fVvSdd0bcFvSlZQpd-1">
          <mxGeometry x="0.0011" width="80" relative="1" as="geometry">
            <mxPoint x="160" y="520" as="sourcePoint" />
            <mxPoint x="240" y="520" as="targetPoint" />
            <mxPoint as="offset" />
          </mxGeometry>
        </mxCell>
        <mxCell id="0C1fVvSdd0bcFvSlZQpd-10" value="ok" style="html=1;verticalAlign=bottom;endArrow=open;dashed=1;endSize=8;curved=0;rounded=0;" edge="1" parent="1" source="0C1fVvSdd0bcFvSlZQpd-1">
          <mxGeometry relative="1" as="geometry">
            <mxPoint x="240" y="560" as="sourcePoint" />
            <mxPoint x="160" y="560" as="targetPoint" />
          </mxGeometry>
        </mxCell>
        <mxCell id="0C1fVvSdd0bcFvSlZQpd-11" value="5. assegnaPreparazione( foglioPreparazioni, preparazione, turno, personale)" style="html=1;verticalAlign=bottom;endArrow=block;curved=0;rounded=0;" edge="1" parent="1" target="0C1fVvSdd0bcFvSlZQpd-1">
          <mxGeometry x="0.0011" width="80" relative="1" as="geometry">
            <mxPoint x="160" y="640" as="sourcePoint" />
            <mxPoint x="240" y="640" as="targetPoint" />
            <mxPoint as="offset" />
          </mxGeometry>
        </mxCell>
        <mxCell id="0C1fVvSdd0bcFvSlZQpd-12" value="foglioPreparazioni aggiornato" style="html=1;verticalAlign=bottom;endArrow=open;dashed=1;endSize=8;curved=0;rounded=0;" edge="1" parent="1" source="0C1fVvSdd0bcFvSlZQpd-1">
          <mxGeometry x="-0.0011" relative="1" as="geometry">
            <mxPoint x="240" y="680" as="sourcePoint" />
            <mxPoint x="160" y="680" as="targetPoint" />
            <mxPoint as="offset" />
          </mxGeometry>
        </mxCell>
        <mxCell id="0C1fVvSdd0bcFvSlZQpd-13" value="6.aggiungoEccesso(preparazione, eccesso, porzioni, partecipanti)" style="html=1;verticalAlign=bottom;endArrow=block;curved=0;rounded=0;" edge="1" parent="1" target="0C1fVvSdd0bcFvSlZQpd-1">
          <mxGeometry x="0.0011" width="80" relative="1" as="geometry">
            <mxPoint x="160" y="760" as="sourcePoint" />
            <mxPoint x="240" y="760" as="targetPoint" />
            <mxPoint as="offset" />
          </mxGeometry>
        </mxCell>
        <mxCell id="0C1fVvSdd0bcFvSlZQpd-14" value="Lista eccessi aggiornata&amp;nbsp;" style="html=1;verticalAlign=bottom;endArrow=open;dashed=1;endSize=8;curved=0;rounded=0;" edge="1" parent="1" source="0C1fVvSdd0bcFvSlZQpd-1">
          <mxGeometry relative="1" as="geometry">
            <mxPoint x="240" y="800" as="sourcePoint" />
            <mxPoint x="160" y="800" as="targetPoint" />
          </mxGeometry>
        </mxCell>
        <mxCell id="0C1fVvSdd0bcFvSlZQpd-15" value="7.rettificaSegnalazione(turno, problematica?, data?,&lt;div&gt;&amp;nbsp;oraInizio?,gruppo?, nomeGruppo?, pre-estensione?, post-estensione? )&lt;/div&gt;" style="html=1;verticalAlign=bottom;endArrow=block;curved=0;rounded=0;" edge="1" parent="1">
          <mxGeometry x="0.0011" width="80" relative="1" as="geometry">
            <mxPoint x="160" y="890" as="sourcePoint" />
            <mxPoint x="599.5" y="890" as="targetPoint" />
            <mxPoint as="offset" />
          </mxGeometry>
        </mxCell>
        <mxCell id="0C1fVvSdd0bcFvSlZQpd-16" value="turno aggiornato" style="html=1;verticalAlign=bottom;endArrow=open;dashed=1;endSize=8;curved=0;rounded=0;" edge="1" parent="1" source="0C1fVvSdd0bcFvSlZQpd-1">
          <mxGeometry relative="1" as="geometry">
            <mxPoint x="240" y="920" as="sourcePoint" />
            <mxPoint x="160" y="920" as="targetPoint" />
          </mxGeometry>
        </mxCell>
        <mxCell id="0C1fVvSdd0bcFvSlZQpd-19" value="la scelta tra ordine e ordineTab deve essere esclusiva, non possono essere selezionati entrambi" style="html=1;whiteSpace=wrap;" vertex="1" parent="1">
          <mxGeometry x="700" y="290" width="130" height="110" as="geometry" />
        </mxCell>
        <mxCell id="USDwZRXXyym83E1lWtOB-2" value="Loop" style="shape=umlFrame;whiteSpace=wrap;html=1;pointerEvents=0;" vertex="1" parent="1">
          <mxGeometry x="100" y="730" width="510" height="90" as="geometry" />
        </mxCell>
        <mxCell id="USDwZRXXyym83E1lWtOB-3" value="Loop" style="shape=umlFrame;whiteSpace=wrap;html=1;pointerEvents=0;width=50;height=20;" vertex="1" parent="1">
          <mxGeometry x="10" y="460" width="620" height="240" as="geometry" />
        </mxCell>
        <mxCell id="USDwZRXXyym83E1lWtOB-5" value="Loop" style="shape=umlFrame;whiteSpace=wrap;html=1;pointerEvents=0;" vertex="1" parent="1">
          <mxGeometry x="100" y="250" width="510" height="90" as="geometry" />
        </mxCell>
        <mxCell id="zZL6KIL56c-Ibxf8T1t6-1" value="Loop" style="shape=umlFrame;whiteSpace=wrap;html=1;pointerEvents=0;" vertex="1" parent="1">
          <mxGeometry x="100" y="860" width="510" height="90" as="geometry" />
        </mxCell>
        <mxCell id="zZL6KIL56c-Ibxf8T1t6-2" value="OPT" style="shape=umlFrame;whiteSpace=wrap;html=1;pointerEvents=0;" vertex="1" parent="1">
          <mxGeometry x="40" y="230" width="580" height="120" as="geometry" />
        </mxCell>
        <mxCell id="zZL6KIL56c-Ibxf8T1t6-3" value="OPT" style="shape=umlFrame;whiteSpace=wrap;html=1;pointerEvents=0;width=50;height=20;" vertex="1" parent="1">
          <mxGeometry x="40" y="490" width="580" height="90" as="geometry" />
        </mxCell>
        <mxCell id="zZL6KIL56c-Ibxf8T1t6-4" value="OPT" style="shape=umlFrame;whiteSpace=wrap;html=1;pointerEvents=0;" vertex="1" parent="1">
          <mxGeometry x="40" y="710" width="580" height="120" as="geometry" />
        </mxCell>
        <mxCell id="zZL6KIL56c-Ibxf8T1t6-5" value="OPT" style="shape=umlFrame;whiteSpace=wrap;html=1;pointerEvents=0;" vertex="1" parent="1">
          <mxGeometry x="40" y="840" width="580" height="120" as="geometry" />
        </mxCell>
        <mxCell id="zZL6KIL56c-Ibxf8T1t6-6" value="OPT" style="shape=umlFrame;whiteSpace=wrap;html=1;pointerEvents=0;width=50;height=20;" vertex="1" parent="1">
          <mxGeometry x="40" y="600" width="580" height="90" as="geometry" />
        </mxCell>
      </root>
    </mxGraphModel>
  </diagram>
</mxfile>
